DBRep_DrawableShape

CASCADE Topology V3, (c) Open Cascade
Locations 2
1
             -1               0               0 6.52899999999998 
              0               1               0 -8.90000000000001 
              0               0              -1 3.1000000000002 
1
              1               0               0               0 
              0               1               0               0 
              0               0               1           0.305 
Curve2ds 0
Curves 16
1 -1.854000000000013 8.4829999999999792 0 0 0 1 
1 -1.854000000000001 0.82500000000000306 0 0 0 1 
1 -1.854000000000013 8.4829999999999792 0 1.5657363105186377e-15 -1 0 
1 -0.829600000000002 0.82500000000000628 0 0 0 1 
1 -1.854000000000001 0.82500000000000306 0 1 3.1429585820118674e-15 0 
1 -0.82959999999999656 -2.665999999999991 0 0 0 1 
1 -0.829600000000002 0.82500000000000628 0 1.5583193413529852e-15 -1 0 
1 -1.853999999999995 -2.665999999999995 0 0 0 1 
1 -0.82959999999999656 -2.665999999999991 0 -1 -3.9016037569802517e-15 0 
1 -1.8539999999999861 -8.4829999999999917 0 0 0 1 
1 -1.853999999999995 -2.665999999999995 0 1.5268668036790884e-15 -1 0 
1 1.853999999999987 -8.482999999999981 0 0 0 1 
1 -1.8539999999999861 -8.4829999999999917 0 1 2.8743638177997787e-15 0 
1 1.8539999999999861 8.4829999999999917 0 0 0 1 
1 1.853999999999987 -8.482999999999981 0 -5.235049037487485e-17 1 0 
1 1.8539999999999861 8.4829999999999917 0 -1 -3.3534244540997184e-15 0 
Polygon3D 0
PolygonOnTriangulations 0
Surfaces 9
1 -1.854000000000013 8.4829999999999792 0 1 1.5657363105186377e-15 -0 1.5657363105186377e-15 -1 0 0 -0 -1 
1 -1.854000000000001 0.82500000000000306 0 -3.1429585820118674e-15 1 0 1 3.1429585820118674e-15 0 0 0 -1 
1 -0.829600000000002 0.82500000000000628 0 1 1.5583193413529852e-15 -0 1.5583193413529852e-15 -1 0 0 -0 -1 
1 -0.82959999999999656 -2.665999999999991 0 3.9016037569802517e-15 -1 0 -1 -3.9016037569802517e-15 0 0 -0 -1 
1 -1.853999999999995 -2.665999999999995 0 1 1.5268668036790884e-15 -0 1.5268668036790884e-15 -1 0 0 -0 -1 
1 -1.8539999999999861 -8.4829999999999917 0 -2.8743638177997787e-15 1 0 1 2.8743638177997787e-15 0 0 0 -1 
1 1.853999999999987 -8.482999999999981 0 -1 -5.235049037487485e-17 0 -5.235049037487485e-17 1 0 -0 0 -1 
1 1.8539999999999861 8.4829999999999917 0 3.3534244540997184e-15 -1 0 -1 -3.3534244540997184e-15 0 0 -0 -1 
1 -0.67090000000000261 -0.46024999999999738 0 0 0 1 1 0 -0 -0 1 0 
Triangulations 0

TShapes 45
Ve
1e-07
-1.85400000000001 8.48299999999998 0
0 0

0101101
*
Ed
 1e-07 1 1 0
1  1 0 0 0.305
0

0101000
+45 0 -45 2 *
Ve
1e-07
-1.854 0.825000000000003 0
0 0

0101101
*
Ed
 1e-07 1 1 0
1  2 0 0 0.305
0

0101000
+43 0 -43 2 *
Ed
 1e-07 1 1 0
1  3 0 0 7.65799999999998
0

0101000
+45 0 -43 0 *
Wi

0101100
+44 0 -42 0 -41 0 +41 2 *
Fa
0  1e-07 1 0

0111000
+40 0 *
Ve
1e-07
-0.829600000000002 0.825000000000006 0
0 0

0101101
*
Ed
 1e-07 1 1 0
1  4 0 0 0.305
0

0101000
+38 0 -38 2 *
Ed
 1e-07 1 1 0
1  5 0 0 1.0244
0

0101000
+43 0 -38 0 *
Wi

0101100
+42 0 -37 0 -36 0 +36 2 *
Fa
0  1e-07 2 0

0111000
+35 0 *
Ve
1e-07
-0.829599999999997 -2.66599999999999 0
0 0

0101101
*
Ed
 1e-07 1 1 0
1  6 0 0 0.305
0

0101000
+33 0 -33 2 *
Ed
 1e-07 1 1 0
1  7 0 0 3.491
0

0101000
+38 0 -33 0 *
Wi

0101100
+37 0 -32 0 -31 0 +31 2 *
Fa
0  1e-07 3 0

0111000
+30 0 *
Ve
1e-07
-1.85399999999999 -2.666 0
0 0

0101101
*
Ed
 1e-07 1 1 0
1  8 0 0 0.305
0

0101000
+28 0 -28 2 *
Ed
 1e-07 1 1 0
1  9 0 0 1.0244
0

0101000
+33 0 -28 0 *
Wi

0101100
+32 0 -27 0 -26 0 +26 2 *
Fa
0  1e-07 4 0

0111000
+25 0 *
Ve
1e-07
-1.85399999999999 -8.48299999999999 0
0 0

0101101
*
Ed
 1e-07 1 1 0
1  10 0 0 0.305
0

0101000
+23 0 -23 2 *
Ed
 1e-07 1 1 0
1  11 0 0 5.817
0

0101000
+28 0 -23 0 *
Wi

0101100
+27 0 -22 0 -21 0 +21 2 *
Fa
0  1e-07 5 0

0111000
+20 0 *
Ve
1e-07
1.85399999999999 -8.48299999999998 0
0 0

0101101
*
Ed
 1e-07 1 1 0
1  12 0 0 0.305
0

0101000
+18 0 -18 2 *
Ed
 1e-07 1 1 0
1  13 0 0 3.70799999999997
0

0101000
+23 0 -18 0 *
Wi

0101100
+22 0 -17 0 -16 0 +16 2 *
Fa
0  1e-07 6 0

0111000
+15 0 *
Ve
1e-07
1.85399999999999 8.48299999999999 0
0 0

0101101
*
Ed
 1e-07 1 1 0
1  14 0 0 0.305
0

0101000
+13 0 -13 2 *
Ed
 1e-07 1 1 0
1  15 0 0 16.966
0

0101000
+18 0 -13 0 *
Wi

0101100
+17 0 -12 0 -11 0 +11 2 *
Fa
0  1e-07 7 0

0111000
+10 0 *
Ed
 1e-07 1 1 0
1  16 0 0 3.708
0

0101000
+13 0 -45 0 *
Wi

0101100
+12 0 -44 0 -8 0 +8 2 *
Fa
0  1e-07 8 0

0111000
+7 0 *
Wi

0101100
+41 0 +36 0 +31 0 +26 0 +21 0 +16 0 +11 0 +8 0 *
Fa
0  1e-07 9 0

0111000
+5 0 *
Sh

0101100
+39 0 +34 0 +29 0 +24 0 +19 0 +14 0 +9 0 +6 0 +4 0 -4 2 
*
So

0100000
-3 0 *
Co

1100000
+2 1 *

+1 0 